name Walk3.mot
datacolumns 19
datarows 20
range 2.08300000 2.10200000
endheader

                time	   L_ground_force_vx	   L_ground_force_vy	   L_ground_force_vz	   L_ground_force_px	   L_ground_force_py	   L_ground_force_pz	   R_ground_force_vx	   R_ground_force_vy	   R_ground_force_vz	   R_ground_force_px	   R_ground_force_py	   R_ground_force_pz	   L_ground_torque_x	   L_ground_torque_y	   L_ground_torque_z	   R_ground_torque_x	   R_ground_torque_y	   R_ground_torque_z	
          2.08300000	        -31.93021647	        554.79776784	        -42.56086457	          0.20598619	          0.00000000	          0.11276530	          0.00000000	          0.00000000	          0.00000000	          0.00000000	          0.00000000	          0.00000000	          0.00000000	          2.06047110	          0.00000000	          0.00000000	          0.00000000	          0.00000000	
          2.08400000	        -31.38588971	        553.37889414	        -42.45060130	          0.20636407	          0.00000000	          0.11292696	          0.00000000	          0.00000000	          0.00000000	          0.00000000	          0.00000000	          0.00000000	          0.00000000	          2.06706042	          0.00000000	          0.00000000	          0.00000000	          0.00000000	
          2.08500000	        -30.84789224	        551.99079563	        -42.34384587	          0.20669516	          0.00000000	          0.11303415	          0.00000000	          0.00000000	          0.00000000	          0.00000000	          0.00000000	          0.00000000	          0.00000000	          2.06393192	          0.00000000	          0.00000000	          0.00000000	          0.00000000	
          2.08600000	        -30.30950350	        550.57999437	        -42.23709429	          0.20694472	          0.00000000	          0.11309046	          0.00000000	          0.00000000	          0.00000000	          0.00000000	          0.00000000	          0.00000000	          0.00000000	          2.05146012	          0.00000000	          0.00000000	          0.00000000	          0.00000000	
          2.08700000	        -29.77764133	        549.16089253	        -42.11959856	          0.20714833	          0.00000000	          0.11314654	          0.00000000	          0.00000000	          0.00000000	          0.00000000	          0.00000000	          0.00000000	          0.00000000	          2.03061983	          0.00000000	          0.00000000	          0.00000000	          0.00000000	
          2.08800000	        -29.27030988	        547.77573103	        -41.98994239	          0.20739129	          0.00000000	          0.11324911	          0.00000000	          0.00000000	          0.00000000	          0.00000000	          0.00000000	          0.00000000	          0.00000000	          2.00273418	          0.00000000	          0.00000000	          0.00000000	          0.00000000	
          2.08900000	        -28.80323505	        546.43874538	        -41.85952024	          0.20773640	          0.00000000	          0.11340012	          0.00000000	          0.00000000	          0.00000000	          0.00000000	          0.00000000	          0.00000000	          0.00000000	          1.97012012	          0.00000000	          0.00000000	          0.00000000	          0.00000000	
          2.09000000	        -28.37831624	        545.14477986	        -41.73920652	          0.20818348	          0.00000000	          0.11357092	          0.00000000	          0.00000000	          0.00000000	          0.00000000	          0.00000000	          0.00000000	          0.00000000	          1.93449918	          0.00000000	          0.00000000	          0.00000000	          0.00000000	
          2.09100000	        -27.98402244	        543.90074282	        -41.63214733	          0.20869955	          0.00000000	          0.11374607	          0.00000000	          0.00000000	          0.00000000	          0.00000000	          0.00000000	          0.00000000	          0.00000000	          1.89838218	          0.00000000	          0.00000000	          0.00000000	          0.00000000	
          2.09200000	        -27.60324938	        542.71006542	        -41.53870530	          0.20925466	          0.00000000	          0.11393205	          0.00000000	          0.00000000	          0.00000000	          0.00000000	          0.00000000	          0.00000000	          0.00000000	          1.86505200	          0.00000000	          0.00000000	          0.00000000	          0.00000000	
          2.09300000	        -27.21489579	        541.53994631	        -41.45976925	          0.20980850	          0.00000000	          0.11412740	          0.00000000	          0.00000000	          0.00000000	          0.00000000	          0.00000000	          0.00000000	          0.00000000	          1.83717050	          0.00000000	          0.00000000	          0.00000000	          0.00000000	
          2.09400000	        -26.79797787	        540.35035513	        -41.39350246	          0.21029874	          0.00000000	          0.11430834	          0.00000000	          0.00000000	          0.00000000	          0.00000000	          0.00000000	          0.00000000	          0.00000000	          1.81742741	          0.00000000	          0.00000000	          0.00000000	          0.00000000	
          2.09500000	        -26.34758252	        539.14270762	        -41.33160124	          0.21067918	          0.00000000	          0.11444476	          0.00000000	          0.00000000	          0.00000000	          0.00000000	          0.00000000	          0.00000000	          0.00000000	          1.80624980	          0.00000000	          0.00000000	          0.00000000	          0.00000000	
          2.09600000	        -25.88027260	        537.94470429	        -41.26394449	          0.21095435	          0.00000000	          0.11452219	          0.00000000	          0.00000000	          0.00000000	          0.00000000	          0.00000000	          0.00000000	          0.00000000	          1.79985791	          0.00000000	          0.00000000	          0.00000000	          0.00000000	
          2.09700000	        -25.41973608	        536.78732142	        -41.18811804	          0.21116912	          0.00000000	          0.11455372	          0.00000000	          0.00000000	          0.00000000	          0.00000000	          0.00000000	          0.00000000	          0.00000000	          1.79440804	          0.00000000	          0.00000000	          0.00000000	          0.00000000	
          2.09800000	        -24.98341878	        535.71031245	        -41.11013346	          0.21138795	          0.00000000	          0.11456882	          0.00000000	          0.00000000	          0.00000000	          0.00000000	          0.00000000	          0.00000000	          0.00000000	          1.78906098	          0.00000000	          0.00000000	          0.00000000	          0.00000000	
          2.09900000	        -24.57673983	        534.73362542	        -41.03716075	          0.21167642	          0.00000000	          0.11458667	          0.00000000	          0.00000000	          0.00000000	          0.00000000	          0.00000000	          0.00000000	          0.00000000	          1.78365672	          0.00000000	          0.00000000	          0.00000000	          0.00000000	
          2.10000000	        -24.19232337	        533.81987604	        -40.97145366	          0.21206104	          0.00000000	          0.11460860	          0.00000000	          0.00000000	          0.00000000	          0.00000000	          0.00000000	          0.00000000	          0.00000000	          1.77725085	          0.00000000	          0.00000000	          0.00000000	          0.00000000	
          2.10100000	        -23.81838569	        532.88780031	        -40.90702413	          0.21249094	          0.00000000	          0.11462553	          0.00000000	          0.00000000	          0.00000000	          0.00000000	          0.00000000	          0.00000000	          0.00000000	          1.76903432	          0.00000000	          0.00000000	          0.00000000	          0.00000000	
          2.10200000	        -23.44724127	        531.86379414	        -40.83216090	          0.21287216	          0.00000000	          0.11462307	          0.00000000	          0.00000000	          0.00000000	          0.00000000	          0.00000000	          0.00000000	          0.00000000	          1.75859298	          0.00000000	          0.00000000	          0.00000000	          0.00000000	
